<svg xmlns="http://www.w3.org/2000/svg" viewBox="0 0 217 79.5" xml:space="preserve"><path d="M19.5 27.4h14.1c2.4 0 4.2.6 5.4 1.7 1.3 1.2 1.9 2.6 1.9 4.3 0 1.4-.4 2.7-1.3 3.7-.6.7-1.5 1.2-2.6 1.6 1.8.4 3 1.1 3.9 2.2.8 1 1.2 2.3 1.2 3.9 0 1.3-.3 2.4-.9 3.4-.6 1-1.4 1.8-2.4 2.4-.6.4-1.6.6-2.9.8-1.7.2-2.8.3-3.4.3h-13V27.4zm7.6 9.5h3.3c1.2 0 2-.2 2.5-.6.5-.4.7-1 .7-1.8 0-.7-.2-1.3-.7-1.7-.5-.4-1.3-.6-2.4-.6h-3.3v4.7zm0 9.6H31c1.3 0 2.2-.2 2.7-.7.5-.5.8-1.1.8-1.9 0-.7-.3-1.3-.8-1.7-.5-.4-1.4-.7-2.8-.7h-3.8v5zM46 27.4h20.2v5.2H53.6v3.9h11.7v5H53.6v4.8h13v5.5H46V27.4zM70.6 27.4h20.2v5.2H78.2v3.9h11.7v5H78.2v4.8h13v5.5H70.6V27.4zM95.3 51.7V27.4h12.6c2.3 0 4.1.2 5.3.6s2.2 1.1 3 2.2c.8 1.1 1.1 2.4 1.1 3.9 0 1.4-.3 2.5-.9 3.5-.6 1-1.4 1.8-2.4 2.4-.6.4-1.5.7-2.6 1 .9.3 1.6.6 2 .9.3.2.7.6 1.2 1.3s.9 1.2 1.1 1.5l3.6 7.1h-8.5l-4-7.4c-.5-1-1-1.6-1.4-1.9-.5-.4-1.2-.6-1.8-.6h-.7v9.9h-7.6zm7.6-14.5h3.2c.3 0 1-.1 2-.3.5-.1.9-.4 1.2-.8.3-.4.5-.9.5-1.4 0-.8-.2-1.4-.7-1.8s-1.4-.6-2.8-.6H103v4.9zM137.3 41.8l6.6 2c-.4 1.8-1.1 3.4-2.1 4.6-1 1.2-2.1 2.2-3.6 2.8-1.4.6-3.2.9-5.4.9-2.7 0-4.8-.4-6.5-1.2-1.7-.8-3.1-2.1-4.3-4.1-1.2-1.9-1.8-4.4-1.8-7.4 0-4 1.1-7.1 3.2-9.3 2.1-2.2 5.2-3.2 9.1-3.2 3.1 0 5.5.6 7.2 1.9 1.8 1.2 3.1 3.1 3.9 5.7l-6.7 1.5c-.2-.7-.5-1.3-.7-1.6-.4-.6-.9-1-1.5-1.3s-1.3-.5-2-.5c-1.7 0-3 .7-3.9 2.1-.7 1-1 2.6-1 4.8 0 2.7.4 4.5 1.2 5.5.8 1 2 1.5 3.5 1.5 1.4 0 2.5-.4 3.3-1.2.7-.8 1.2-2 1.5-3.5zM162.6 47.7H154l-1.2 4h-7.7l9.2-24.3h8.2l9.2 24.3h-7.9l-1.2-4zm-1.6-5.3-2.7-8.8-2.7 8.8h5.4zM174.1 27.4h7l9.2 13.5V27.4h7.1v24.3h-7.1l-9.1-13.4v13.4h-7.1V27.4z"/></svg>