<svg xmlns="http://www.w3.org/2000/svg" viewBox="0 0 217 79.5" xml:space="preserve"><path d="M36.3 27.4h14.1c2.4 0 4.2.6 5.4 1.7 1.3 1.2 1.9 2.6 1.9 4.3 0 1.4-.4 2.7-1.3 3.7-.6.7-1.5 1.2-2.6 1.6 1.8.4 3 1.1 3.9 2.2.8 1 1.2 2.3 1.2 3.9 0 1.3-.3 2.4-.9 3.4-.6 1-1.4 1.8-2.4 2.4-.6.4-1.6.6-2.9.8-1.7.2-2.8.3-3.4.3h-13V27.4zm7.6 9.5h3.3c1.2 0 2-.2 2.5-.6.5-.4.7-1 .7-1.8 0-.7-.2-1.3-.7-1.7-.5-.4-1.3-.6-2.4-.6H44v4.7zm0 9.6h3.8c1.3 0 2.2-.2 2.7-.7.5-.5.8-1.1.8-1.9 0-.7-.3-1.3-.8-1.7-.5-.4-1.4-.7-2.8-.7h-3.8v5zM63 27.4h7.6v24.3H63V27.4zM76.1 51.7V27.4h12.6c2.3 0 4.1.2 5.3.6s2.2 1.1 3 2.2c.8 1.1 1.1 2.4 1.1 3.9 0 1.4-.3 2.5-.9 3.5-.6 1-1.4 1.8-2.4 2.4-.6.4-1.5.7-2.6 1 .9.3 1.6.6 2 .9.3.2.7.6 1.2 1.3s.9 1.2 1.1 1.5l3.6 7.1h-8.5l-4-7.4c-.5-1-1-1.6-1.4-1.9-.5-.4-1.2-.6-1.8-.6h-.7v9.9h-7.6zm7.6-14.5h3.2c.3 0 1-.1 2-.3.5-.1.9-.4 1.2-.8.3-.4.5-.9.5-1.4 0-.8-.2-1.4-.7-1.8s-1.4-.6-2.8-.6h-3.3v4.9zM102.5 27.4h7.5v9.2l7.9-9.2h10l-8.9 9.2 9.3 15.2H119l-5.1-10-3.9 4.1v5.9h-7.5V27.4zM145.9 47.7h-8.6l-1.2 4h-7.7l9.2-24.3h8.2l9.2 24.3h-7.9l-1.2-4zm-1.6-5.3-2.7-8.8-2.7 8.8h5.4zM157.4 27.4h7l9.2 13.5V27.4h7.1v24.3h-7.1l-9.1-13.4v13.4h-7.1V27.4z"/></svg>